<?xml version="1.0" encoding="UTF-8" standalone="no"?><!DOCTYPE svg PUBLIC "-//W3C//DTD SVG 1.1//EN" "http://www.w3.org/Graphics/SVG/1.1/DTD/svg11.dtd"><svg width="100%" height="100%" viewBox="0 0 1474 346" version="1.1" xmlns="http://www.w3.org/2000/svg" xmlns:xlink="http://www.w3.org/1999/xlink" xml:space="preserve" xmlns:serif="http://www.serif.com/" style="fill-rule:evenodd;clip-rule:evenodd;stroke-linejoin:round;stroke-miterlimit:2;"><g><g><path d="M388.624,271.626l-0,-195.395l20.656,-4.745l-0,75.087c11.91,-11.351 26.89,-17.027 44.941,-17.027c13.212,-0 25.122,3.21 35.729,9.63c10.607,6.42 19.028,15.027 25.262,25.82c6.234,10.793 9.351,22.982 9.351,36.567c-0,13.585 -3.117,25.82 -9.351,36.706c-6.234,10.887 -14.655,19.54 -25.262,25.96c-10.607,6.42 -22.61,9.63 -36.009,9.63c-8.188,0 -16.143,-1.396 -23.866,-4.187c-7.722,-2.791 -14.747,-6.792 -21.074,-12.003l-0,13.957l-20.377,-0Zm63.643,-15.911c9.862,0 18.702,-2.372 26.518,-7.118c7.815,-4.745 14.003,-11.165 18.562,-19.26c4.559,-8.095 6.839,-17.26 6.839,-27.495c-0,-10.235 -2.28,-19.446 -6.839,-27.634c-4.559,-8.188 -10.747,-14.655 -18.562,-19.4c-7.816,-4.746 -16.656,-7.118 -26.518,-7.118c-8.747,-0 -16.888,1.721 -24.425,5.164c-7.536,3.442 -13.724,8.234 -18.562,14.375l-0,69.226c4.838,5.955 11.072,10.654 18.702,14.096c7.63,3.443 15.724,5.164 24.285,5.164Z"/><path d="M553.314,271.626l-0,-139.847l20.656,-0l-0,139.847l-20.656,-0Zm10.328,-166.644c-3.722,-0 -6.979,-1.396 -9.77,-4.187c-2.791,-2.791 -4.187,-6.048 -4.187,-9.77c0,-3.908 1.396,-7.211 4.187,-9.909c2.791,-2.698 6.048,-4.048 9.77,-4.048c3.908,0 7.211,1.35 9.909,4.048c2.698,2.698 4.048,6.001 4.048,9.909c-0,3.722 -1.35,6.979 -4.048,9.77c-2.698,2.791 -6.001,4.187 -9.909,4.187Z"/><path d="M662.735,274.417c-10.607,0 -20.005,-2.279 -28.193,-6.839c-8.188,-4.559 -14.561,-10.886 -19.121,-18.981c-4.559,-8.095 -6.838,-17.539 -6.838,-28.332l-0,-88.486l20.377,-0l-0,84.299c-0,12.468 3.535,22.284 10.607,29.449c7.071,7.164 16.562,10.747 28.472,10.747c8.374,-0 15.864,-1.908 22.47,-5.723c6.606,-3.815 11.956,-9.165 16.05,-16.05l0,-102.722l20.656,-0l0,139.847l-20.656,-0l0,-16.19c-10.979,12.654 -25.587,18.981 -43.824,18.981Z"/><path d="M762.386,271.626l0,-139.847l20.656,-0l0,19.819c4.281,-7.258 9.724,-12.887 16.33,-16.888c6.606,-4.001 14.189,-6.001 22.749,-6.001c4.839,-0 9.212,0.651 13.12,1.953l-0,18.982c-2.419,-0.931 -4.839,-1.582 -7.258,-1.954c-2.419,-0.372 -4.838,-0.559 -7.257,-0.559c-8.56,0 -16.051,2.466 -22.471,7.398c-6.42,4.931 -11.491,12.049 -15.213,21.353l0,95.744l-20.656,-0Z"/><path d="M914.236,274.417c-13.212,0 -25.262,-3.21 -36.148,-9.63c-10.886,-6.42 -19.493,-15.12 -25.82,-26.099c-6.327,-10.979 -9.491,-23.261 -9.491,-36.846c0,-13.585 3.164,-25.867 9.491,-36.846c6.327,-10.979 14.934,-19.679 25.82,-26.099c10.886,-6.42 22.936,-9.630 36.148,-9.63c13.399,-0 25.495,3.21 36.288,9.63c10.793,6.42 19.353,15.12 25.68,26.099c6.327,10.979 9.491,23.261 9.491,36.846c-0,13.585 -3.164,25.867 -9.491,36.846c-6.327,10.979 -14.887,19.679 -25.68,26.099c-10.793,6.42 -22.889,9.63 -36.288,9.63Zm0,-18.423c9.491,0 18.097,-2.419 25.82,-7.257c7.723,-4.839 13.864,-11.352 18.423,-19.54c4.559,-8.188 6.839,-17.306 6.839,-27.355c0,-10.235 -2.28,-19.4 -6.839,-27.495c-4.559,-8.095 -10.7,-14.561 -18.423,-19.4c-7.723,-4.838 -16.329,-7.257 -25.82,-7.257c-9.49,-0 -18.097,2.419 -25.82,7.257c-7.723,4.839 -13.864,11.305 -18.423,19.4c-4.559,8.095 -6.839,17.26 -6.839,27.495c0,10.049 2.28,19.167 6.839,27.355c4.559,8.188 10.7,14.701 18.423,19.54c7.723,4.838 16.33,7.257 25.82,7.257Z"/><path d="M1014.45,271.626l-0,-139.847l20.656,-0l-0,15.352c10.607,-12.095 24.285,-18.143 41.033,-18.143c9.863,-0 18.609,2.279 26.239,6.838c7.629,4.56 13.584,10.747 17.864,18.563c5.769,-8.56 12.654,-14.934 20.656,-19.121c8.002,-4.187 17.121,-6.28 27.356,-6.28c10.235,-0 19.167,2.279 26.797,6.838c7.629,4.56 13.631,10.887 18.004,18.982c4.373,8.095 6.56,17.539 6.56,28.332l-0,88.486l-20.377,-0l-0,-84.299c-0,-12.468 -3.257,-22.284 -9.77,-29.449c-6.513,-7.164 -15.352,-10.747 -26.518,-10.747c-7.63,0 -14.608,1.908 -20.935,5.723c-6.327,3.815 -11.724,9.537 -16.19,17.167c0.372,2.047 0.698,4.14 0.977,6.28c0.279,2.14 0.419,4.42 0.419,6.839l-0,88.486l-20.377,-0l-0,-84.299c-0,-12.468 -3.257,-22.284 -9.77,-29.449c-6.513,-7.164 -15.259,-10.747 -26.239,-10.747c-7.443,0 -14.189,1.722 -20.237,5.164c-6.048,3.443 -11.212,8.514 -15.492,15.213l-0,104.118l-20.656,-0Z"/><path d="M1298.33,274.138c-10.235,0 -19.214,-1.768 -26.937,-5.303c-7.722,-3.536 -13.77,-8.468 -18.144,-14.795c-4.373,-6.327 -6.559,-13.677 -6.559,-22.051c-0,-13.213 5.024,-23.634 15.073,-31.263c10.049,-7.630 23.634,-11.445 40.754,-11.445c15.073,-0 28.751,3.163 41.033,9.491l-0,-18.423c-0,-11.166 -3.164,-19.586 -9.491,-25.262c-6.327,-5.676 -15.538,-8.514 -27.634,-8.514c-6.886,0 -13.817,0.977 -20.796,2.931c-6.978,1.954 -14.654,5.071 -23.028,9.351l-7.816,-15.911c10.049,-4.838 19.353,-8.374 27.913,-10.607c8.56,-2.233 17.121,-3.349 25.681,-3.349c17.678,-0 31.309,4.187 40.893,12.561c9.584,8.374 14.376,20.377 14.376,36.008l-0,94.069l-20.098,-0l-0,-13.678c-6.327,5.397 -13.259,9.444 -20.796,12.143c-7.536,2.698 -15.678,4.047 -24.424,4.047Zm-31.822,-42.708c0,7.816 3.304,14.19 9.910,19.121c6.606,4.932 15.12,7.397 25.541,7.397c8.374,0 16.003,-1.302 22.889,-3.908c6.885,-2.605 13.119,-6.699 18.702,-12.282l-0,-26.238c-5.769,-3.908 -11.91,-6.746 -18.423,-8.514c-6.513,-1.768 -13.864,-2.652 -22.052,-2.652c-11.165,0 -20.051,2.466 -26.657,7.397c-6.606,4.932 -9.910,11.491 -9.910,19.679Z"/><path d="M1449.06,274.417c-12.096,0 -21.4,-2.884 -27.913,-8.653c-6.514,-5.769 -9.77,-14.143 -9.77,-25.122l-0,-91.277l-30.147,-0l0,-17.586l30.147,-0l-0,-35.45l20.377,-5.304l-0,40.754l42.149,-0l0,17.586l-42.149,-0l-0,85.973c-0,7.444 1.675,12.794 5.024,16.051c3.35,3.256 8.839,4.885 16.469,4.885c3.908,-0 7.397,-0.28 10.468,-0.838c3.07,-0.558 6.373,-1.489 9.909,-2.791l0,18.144c-3.536,1.302 -7.49,2.233 -11.863,2.791c-4.373,0.558 -8.607,0.837 -12.701,0.837Z"/></g><path d="M153.299,28.022c5.375,-5.375 11.234,-9.977 17.436,-13.805c36.905,-22.784 85.976,-18.184 117.965,13.805c31.989,31.989 36.589,81.061 13.806,117.966c-3.829,6.201 -8.430,12.060 -13.806,17.435l-160.494,160.494c-11.949,11.949 -26.935,19.027 -42.483,21.235c-22.594,3.21 -46.373,-3.871 -63.737,-21.235c-17.364,-17.364 -24.445,-41.143 -21.235,-63.737c2.208,-15.548 9.286,-30.534 21.235,-42.483l160.494,-160.494c1.866,-1.867 3.835,-3.569 5.889,-5.108c7.615,-5.706 16.389,-9.161 25.407,-10.360c5.604,-0.745 11.302,-0.619 16.875,0.379c10.577,1.893 20.701,6.922 28.868,15.089c8.167,8.167 13.196,18.292 15.09,28.869c0.997,5.572 1.123,11.27 0.378,16.875c-1.199,9.017 -4.654,17.791 -10.36,25.407c-1.539,2.053 -3.241,4.022 -5.108,5.889l-145.516,145.516l-18.678,-18.679l145.516,-145.515c5.401,-5.401 8.137,-12.463 8.21,-19.548c0.076,-7.281 -2.66,-14.586 -8.21,-20.136c-5.55,-5.55 -12.855,-8.286 -20.136,-8.21c-7.084,0.074 -14.147,2.81 -19.547,8.21l-160.494,160.494c-19.004,19.004 -19.004,49.861 -0,68.864c19.003,19.004 49.86,19.004 68.864,0l160.494,-160.494c27.056,-27.056 27.056,-70.988 -0,-98.044c-27.056,-27.057 -70.989,-27.057 -98.045,-0l-145.516,145.515l-18.678,-18.678l145.516,-145.516Z" style="fill:#203c8c;"/></g></svg>
